<?xml version="1.0" standalone="no"?>
<!DOCTYPE svg PUBLIC "-//W3C//DTD SVG 20010904//EN"
 "http://www.w3.org/TR/2001/REC-SVG-20010904/DTD/svg10.dtd">
<svg version="1.0" xmlns="http://www.w3.org/2000/svg"
 width="1000.000000pt" height="1000.000000pt" viewBox="0 0 1000.000000 1000.000000"
 preserveAspectRatio="xMidYMid meet">
<metadata>
Created by potrace 1.14, written by Peter Selinger 2001-2017
</metadata>
<g transform="translate(0.000000,1000.000000) scale(0.100000,-0.100000)"
fill="#000000" stroke="none">
<path d="M4904 9141 c-103 -17 -202 -58 -359 -150 -44 -26 -143 -84 -220 -128
-77 -44 -243 -140 -370 -213 -126 -73 -288 -166 -360 -207 -71 -42 -175 -101
-230 -133 -55 -32 -156 -90 -225 -130 -168 -98 -263 -153 -685 -395 -821 -473
-847 -488 -913 -550 -83 -76 -154 -185 -189 -289 l-28 -81 -3 -1832 c-3 -2043
-7 -1908 67 -2058 51 -101 115 -181 191 -238 32 -24 170 -109 307 -187 136
-79 304 -176 373 -216 69 -40 328 -189 575 -331 248 -143 765 -441 1150 -663
385 -222 731 -416 770 -431 182 -70 366 -61 548 25 40 19 146 78 237 131 91
54 210 123 265 154 55 32 145 84 200 116 55 32 157 91 228 131 70 41 187 109
260 151 72 42 173 100 222 128 98 57 295 170 445 257 52 30 241 139 420 243
867 500 814 468 901 555 58 59 86 97 118 161 83 170 76 -17 79 2004 3 1934 4
1882 -48 2018 -30 80 -109 195 -175 255 -30 28 -108 82 -173 119 -155 92 -598
347 -1207 698 -126 73 -318 183 -425 245 -107 62 -251 145 -320 185 -69 39
-186 107 -260 150 -74 43 -192 111 -262 152 -71 40 -188 108 -260 150 -211
122 -268 151 -349 177 -85 27 -216 39 -295 27z m183 -1331 c101 -13 183 -43
293 -108 131 -77 298 -173 470 -272 80 -46 186 -107 235 -135 50 -29 151 -87
225 -130 163 -94 271 -157 450 -260 240 -139 314 -182 387 -224 109 -63 201
-158 251 -261 76 -156 72 -73 72 -1340 0 -1256 3 -1197 -65 -1335 -65 -131
-148 -211 -323 -310 -98 -56 -325 -187 -642 -370 -69 -40 -226 -131 -350 -202
-244 -141 -338 -195 -590 -342 -218 -126 -241 -137 -334 -161 -100 -25 -201
-25 -300 0 -82 21 -141 50 -351 172 -71 41 -175 101 -230 133 -55 32 -158 92
-230 133 -71 41 -186 108 -255 147 -120 69 -196 113 -415 240 -210 122 -344
199 -450 258 -186 105 -280 212 -347 398 l-23 64 0 1170 0 1170 28 80 c16 44
40 100 54 125 38 64 148 176 213 214 30 18 159 93 285 166 127 73 289 167 360
208 72 41 171 99 220 127 50 29 151 87 225 130 160 93 335 194 480 278 58 33
141 82 185 108 162 95 245 124 390 137 6 1 42 -3 82 -8z"/>
<path d="M4924 7516 c-42 -13 -86 -37 -369 -201 -170 -99 -426 -246 -670 -387
-71 -41 -191 -110 -265 -153 -241 -140 -393 -227 -510 -293 -133 -76 -191
-126 -228 -197 l-27 -50 0 -1160 0 -1160 23 -42 c52 -99 51 -98 607 -419 160
-91 349 -200 420 -242 72 -41 213 -123 315 -182 102 -58 262 -151 355 -205
354 -205 344 -200 445 -200 68 0 83 4 155 41 44 23 130 70 190 106 102 60 237
138 480 278 55 32 154 89 220 127 66 39 221 129 345 200 124 72 317 184 430
249 113 65 222 134 242 152 21 19 50 59 65 90 l28 57 0 1150 0 1150 -24 53
c-32 70 -92 122 -242 208 -164 95 -334 193 -499 289 -74 43 -191 111 -260 150
-69 40 -170 98 -225 130 -55 32 -156 91 -225 130 -69 40 -165 96 -215 125
-237 138 -341 194 -383 206 -55 17 -123 17 -178 0z m321 -627 c66 -21 101 -39
350 -184 208 -120 503 -290 650 -375 258 -148 322 -190 378 -249 69 -72 130
-193 147 -291 8 -45 10 -287 8 -790 -3 -709 -4 -726 -24 -780 -69 -182 -138
-255 -346 -374 -51 -29 -138 -79 -193 -111 -55 -32 -156 -90 -225 -130 -69
-39 -201 -116 -295 -170 -442 -255 -441 -255 -581 -263 -65 -3 -113 0 -166 12
-79 17 -100 29 -623 331 -132 76 -343 198 -470 271 -312 180 -373 237 -441
414 l-29 75 -3 737 c-3 812 -3 804 59 935 60 126 144 196 434 360 39 22 257
148 485 280 228 132 438 252 465 266 52 26 136 52 190 60 51 8 167 -5 230 -24z"/>
<path d="M5000 6618 c-19 -5 -75 -34 -125 -63 -83 -49 -350 -202 -690 -398
-77 -44 -176 -102 -220 -127 -44 -26 -105 -61 -135 -78 -70 -39 -113 -84 -142
-147 l-23 -50 -3 -694 c-3 -769 -4 -758 61 -843 39 -52 20 -39 643 -399 126
-72 290 -167 364 -211 223 -131 274 -153 351 -153 74 0 109 15 334 146 273
160 541 315 819 474 149 86 201 128 231 190 19 38 20 68 23 755 2 522 0 726
-9 755 -14 49 -59 112 -102 143 -18 13 -95 59 -172 104 -266 152 -413 237
-700 405 -227 132 -323 184 -356 193 -42 12 -103 11 -149 -2z m232 -596 c40
-22 141 -79 223 -127 83 -47 215 -123 294 -168 165 -94 220 -142 244 -212 24
-70 25 -863 2 -943 -28 -94 -59 -115 -703 -480 -139 -78 -188 -93 -265 -78
-19 4 -149 72 -288 152 -140 80 -303 174 -364 208 -60 33 -128 80 -151 103
-73 74 -74 80 -74 564 0 461 1 475 55 545 29 38 183 131 714 432 116 66 198
67 313 4z"/>
</g>
</svg>
